<?xml version="1.0" standalone="no"?>
<!DOCTYPE svg PUBLIC "-//W3C//DTD SVG 20010904//EN"
 "http://www.w3.org/TR/2001/REC-SVG-20010904/DTD/svg10.dtd">
<svg version="1.0" xmlns="http://www.w3.org/2000/svg"
 width="150.000000pt" height="150.000000pt" viewBox="0 0 150.000000 150.000000"
 preserveAspectRatio="xMidYMid meet">

<g transform="translate(0.000000,150.000000) scale(0.100000,-0.100000)"
fill="#1B27AF" stroke="none">
<path d="M670 1361 c-24 -12 -44 -36 -64 -75 l-29 -56 -78 0 c-77 0 -78 0 -81
28 l-3 27 -130 0 -130 0 -5 -32 c-4 -25 -15 -39 -51 -62 -25 -16 -57 -46 -70
-67 l-24 -39 -3 -360 c-4 -393 -2 -412 51 -472 66 -75 43 -73 687 -73 391 0
588 4 615 11 52 15 119 82 134 134 14 53 15 705 0 758 -23 85 -111 146 -210
147 l-56 0 -29 56 c-46 89 -60 94 -294 94 -171 0 -200 -2 -230 -19z m444 -63
c14 -13 34 -45 44 -73 l20 -50 78 -5 c95 -6 137 -26 164 -80 19 -37 20 -58 20
-385 0 -327 -1 -348 -20 -385 -13 -26 -34 -47 -60 -60 -38 -19 -58 -20 -610
-20 -552 0 -572 1 -610 20 -26 13 -47 34 -60 60 -19 37 -20 58 -20 385 0 330
1 348 21 386 16 32 32 46 75 66 44 20 54 29 54 49 0 23 2 24 74 24 74 0 75 0
78 -27 l3 -28 129 0 128 0 20 50 c35 93 41 95 258 95 182 0 190 -1 214 -22z"/>
<path d="M807 1100 c-109 -28 -211 -113 -261 -220 -28 -58 -31 -75 -31 -160 0
-88 3 -101 33 -162 42 -85 105 -148 190 -190 61 -30 74 -33 162 -33 88 0 101
3 162 33 85 42 148 105 190 190 30 61 33 74 33 162 0 88 -3 101 -33 162 -67
136 -186 217 -330 224 -42 2 -94 -1 -115 -6z m225 -77 c65 -30 133 -95 165
-162 37 -75 40 -200 6 -273 -30 -66 -96 -133 -162 -165 -48 -24 -68 -28 -141
-28 -73 0 -93 4 -141 28 -223 109 -253 402 -57 560 85 68 227 85 330 40z"/>
<path d="M170 1060 c-11 -11 -20 -29 -20 -40 0 -26 34 -60 60 -60 26 0 60 34
60 60 0 11 -9 29 -20 40 -11 11 -29 20 -40 20 -11 0 -29 -9 -40 -20z"/>
</g>
</svg>
